<mxfile host="app.diagrams.net" modified="2021-03-05T13:52:31.098Z" agent="5.0 (Windows NT 10.0; Win64; x64) AppleWebKit/537.36 (KHTML, like Gecko) Chrome/88.0.4324.190 Safari/537.36" etag="UBXFelri7pOk1sAtT2J9" version="14.4.4" type="github">
  <diagram name="Package Data Flowchart" id="c7558073-3199-34d8-9f00-42111426c3f3">
    <mxGraphModel dx="2062" dy="1154" grid="1" gridSize="10" guides="1" tooltips="1" connect="1" arrows="1" fold="1" page="1" pageScale="1" pageWidth="826" pageHeight="1169" background="#ffffff" math="0" shadow="0">
      <root>
        <mxCell id="0" />
        <mxCell id="1" parent="0" />
        <mxCell id="IAP_nSiCaJIR2EBRwu1--117" value="" style="group" vertex="1" connectable="0" parent="1">
          <mxGeometry x="120" y="680" width="330" height="120" as="geometry" />
        </mxCell>
        <mxCell id="IAP_nSiCaJIR2EBRwu1--113" value="Backtest" style="rounded=1;whiteSpace=wrap;html=1;" vertex="1" parent="IAP_nSiCaJIR2EBRwu1--117">
          <mxGeometry width="120" height="120" as="geometry" />
        </mxCell>
        <mxCell id="IAP_nSiCaJIR2EBRwu1--114" value="&lt;h1&gt;백테스팅&lt;/h1&gt;&lt;div&gt;- 백테스트 전략을 기반으로&lt;/div&gt;&lt;div&gt;&amp;nbsp; 백테스팅 수행&lt;/div&gt;&lt;div&gt;- DB에 저장 후 전략 분석&lt;/div&gt;" style="text;html=1;strokeColor=none;fillColor=none;spacing=5;spacingTop=-20;whiteSpace=wrap;overflow=hidden;rounded=0;" vertex="1" parent="IAP_nSiCaJIR2EBRwu1--117">
          <mxGeometry x="140" y="10" width="190" height="100" as="geometry" />
        </mxCell>
        <mxCell id="IAP_nSiCaJIR2EBRwu1--118" value="" style="group" vertex="1" connectable="0" parent="1">
          <mxGeometry x="120" y="820" width="330" height="120" as="geometry" />
        </mxCell>
        <mxCell id="IAP_nSiCaJIR2EBRwu1--115" value="Trade" style="rounded=1;whiteSpace=wrap;html=1;" vertex="1" parent="IAP_nSiCaJIR2EBRwu1--118">
          <mxGeometry width="120" height="120" as="geometry" />
        </mxCell>
        <mxCell id="IAP_nSiCaJIR2EBRwu1--116" value="&lt;h1&gt;트레이딩&lt;/h1&gt;&lt;div&gt;- 백테스트 전략을 기반으로&lt;/div&gt;&lt;div&gt;&amp;nbsp; 백테스팅 수행&lt;/div&gt;&lt;div&gt;- DB에 저장 후 전략 분석&lt;/div&gt;" style="text;html=1;strokeColor=none;fillColor=none;spacing=5;spacingTop=-20;whiteSpace=wrap;overflow=hidden;rounded=0;" vertex="1" parent="IAP_nSiCaJIR2EBRwu1--118">
          <mxGeometry x="140" y="10" width="190" height="100" as="geometry" />
        </mxCell>
        <mxCell id="IAP_nSiCaJIR2EBRwu1--119" value="" style="group" vertex="1" connectable="0" parent="1">
          <mxGeometry x="120" y="540" width="330" height="120" as="geometry" />
        </mxCell>
        <mxCell id="IAP_nSiCaJIR2EBRwu1--111" value="Collect" style="rounded=1;whiteSpace=wrap;html=1;" vertex="1" parent="IAP_nSiCaJIR2EBRwu1--119">
          <mxGeometry width="120" height="120" as="geometry" />
        </mxCell>
        <mxCell id="IAP_nSiCaJIR2EBRwu1--112" value="&lt;h1&gt;&lt;span&gt;데이터 커넥션&lt;/span&gt;&lt;/h1&gt;&lt;div&gt;&lt;span&gt;- 브로커 별 데이터 호출&lt;/span&gt;&lt;/div&gt;&lt;div&gt;&lt;span&gt;- MYSQL DB에 저장&lt;/span&gt;&lt;br&gt;&lt;/div&gt;" style="text;html=1;strokeColor=none;fillColor=none;spacing=5;spacingTop=-20;whiteSpace=wrap;overflow=hidden;rounded=0;" vertex="1" parent="IAP_nSiCaJIR2EBRwu1--119">
          <mxGeometry x="140" y="15" width="190" height="90" as="geometry" />
        </mxCell>
        <mxCell id="IAP_nSiCaJIR2EBRwu1--120" value="" style="group" vertex="1" connectable="0" parent="1">
          <mxGeometry x="120" y="400" width="330" height="120" as="geometry" />
        </mxCell>
        <mxCell id="IAP_nSiCaJIR2EBRwu1--103" value="Strategy" style="rounded=1;whiteSpace=wrap;html=1;" vertex="1" parent="IAP_nSiCaJIR2EBRwu1--120">
          <mxGeometry width="120" height="120" as="geometry" />
        </mxCell>
        <mxCell id="IAP_nSiCaJIR2EBRwu1--110" value="&lt;h1&gt;&lt;span&gt;전략 생성&lt;/span&gt;&lt;/h1&gt;&lt;div&gt;&lt;span&gt;- 유저가 전략 생성&amp;nbsp;&lt;/span&gt;&lt;/div&gt;&lt;div&gt;&lt;span&gt;- 한번 전략 생성 후 범용 사용&lt;/span&gt;&lt;/div&gt;&lt;div&gt;&lt;span&gt;- MYSQL DB에 저장&lt;/span&gt;&lt;/div&gt;" style="text;html=1;strokeColor=none;fillColor=none;spacing=5;spacingTop=-20;whiteSpace=wrap;overflow=hidden;rounded=0;" vertex="1" parent="IAP_nSiCaJIR2EBRwu1--120">
          <mxGeometry x="140" y="10" width="190" height="100" as="geometry" />
        </mxCell>
        <mxCell id="IAP_nSiCaJIR2EBRwu1--121" value="" style="group" vertex="1" connectable="0" parent="1">
          <mxGeometry x="120" y="960" width="330" height="120" as="geometry" />
        </mxCell>
        <mxCell id="IAP_nSiCaJIR2EBRwu1--122" value="Chatbot" style="rounded=1;whiteSpace=wrap;html=1;" vertex="1" parent="IAP_nSiCaJIR2EBRwu1--121">
          <mxGeometry width="120" height="120" as="geometry" />
        </mxCell>
        <mxCell id="IAP_nSiCaJIR2EBRwu1--123" value="&lt;h1&gt;챗봇&lt;/h1&gt;&lt;div&gt;- 실제 트레이딩에 대한&lt;/div&gt;&lt;div&gt;&amp;nbsp; 알림설정&lt;/div&gt;&lt;div&gt;&lt;br&gt;&lt;/div&gt;" style="text;html=1;strokeColor=none;fillColor=none;spacing=5;spacingTop=-20;whiteSpace=wrap;overflow=hidden;rounded=0;" vertex="1" parent="IAP_nSiCaJIR2EBRwu1--121">
          <mxGeometry x="140" y="10" width="190" height="100" as="geometry" />
        </mxCell>
        <mxCell id="IAP_nSiCaJIR2EBRwu1--141" value="" style="edgeStyle=elbowEdgeStyle;elbow=horizontal;endArrow=classic;html=1;exitX=1;exitY=0.25;exitDx=0;exitDy=0;entryX=1;entryY=0.25;entryDx=0;entryDy=0;" edge="1" parent="1" source="IAP_nSiCaJIR2EBRwu1--110" target="IAP_nSiCaJIR2EBRwu1--116">
          <mxGeometry width="50" height="50" relative="1" as="geometry">
            <mxPoint x="380" y="650" as="sourcePoint" />
            <mxPoint x="610" y="590" as="targetPoint" />
            <Array as="points">
              <mxPoint x="640" y="660" />
              <mxPoint x="520" y="690" />
            </Array>
          </mxGeometry>
        </mxCell>
        <mxCell id="IAP_nSiCaJIR2EBRwu1--143" value="" style="edgeStyle=elbowEdgeStyle;elbow=horizontal;endArrow=classic;html=1;exitX=1;exitY=0.25;exitDx=0;exitDy=0;entryX=1;entryY=0.25;entryDx=0;entryDy=0;" edge="1" parent="1" target="IAP_nSiCaJIR2EBRwu1--114">
          <mxGeometry width="50" height="50" relative="1" as="geometry">
            <mxPoint x="450" y="435" as="sourcePoint" />
            <mxPoint x="450" y="880" as="targetPoint" />
            <Array as="points">
              <mxPoint x="640" y="610" />
            </Array>
          </mxGeometry>
        </mxCell>
        <mxCell id="IAP_nSiCaJIR2EBRwu1--144" value="백테스트 전략 입력" style="text;html=1;strokeColor=none;fillColor=none;align=center;verticalAlign=middle;whiteSpace=wrap;rounded=0;" vertex="1" parent="1">
          <mxGeometry x="470" y="690" width="140" height="20" as="geometry" />
        </mxCell>
        <mxCell id="IAP_nSiCaJIR2EBRwu1--145" value="실투 전략 입력" style="text;html=1;strokeColor=none;fillColor=none;align=center;verticalAlign=middle;whiteSpace=wrap;rounded=0;" vertex="1" parent="1">
          <mxGeometry x="470" y="830" width="140" height="20" as="geometry" />
        </mxCell>
        <mxCell id="IAP_nSiCaJIR2EBRwu1--147" value="" style="edgeStyle=elbowEdgeStyle;elbow=horizontal;endArrow=classic;html=1;entryX=1;entryY=0.25;entryDx=0;entryDy=0;" edge="1" parent="1" target="IAP_nSiCaJIR2EBRwu1--123">
          <mxGeometry width="50" height="50" relative="1" as="geometry">
            <mxPoint x="450" y="905" as="sourcePoint" />
            <mxPoint x="510" y="1040" as="targetPoint" />
            <Array as="points">
              <mxPoint x="640" y="960" />
              <mxPoint x="640" y="971" />
            </Array>
          </mxGeometry>
        </mxCell>
        <mxCell id="IAP_nSiCaJIR2EBRwu1--148" value="주요 알림 안내" style="text;html=1;strokeColor=none;fillColor=none;align=center;verticalAlign=middle;whiteSpace=wrap;rounded=0;" vertex="1" parent="1">
          <mxGeometry x="470" y="970" width="140" height="20" as="geometry" />
        </mxCell>
        <mxCell id="IAP_nSiCaJIR2EBRwu1--150" value="" style="edgeStyle=elbowEdgeStyle;elbow=horizontal;endArrow=classic;html=1;entryX=1;entryY=0.25;entryDx=0;entryDy=0;" edge="1" parent="1" target="IAP_nSiCaJIR2EBRwu1--112">
          <mxGeometry width="50" height="50" relative="1" as="geometry">
            <mxPoint x="450" y="800" as="sourcePoint" />
            <mxPoint x="500" y="750" as="targetPoint" />
            <Array as="points">
              <mxPoint x="680" y="690" />
              <mxPoint x="680" y="790" />
            </Array>
          </mxGeometry>
        </mxCell>
        <mxCell id="IAP_nSiCaJIR2EBRwu1--151" value="백테스팅 결과저장" style="text;html=1;strokeColor=none;fillColor=none;align=center;verticalAlign=middle;whiteSpace=wrap;rounded=0;" vertex="1" parent="1">
          <mxGeometry x="470" y="550" width="140" height="20" as="geometry" />
        </mxCell>
        <mxCell id="IAP_nSiCaJIR2EBRwu1--153" value="" style="edgeStyle=elbowEdgeStyle;elbow=horizontal;endArrow=classic;html=1;entryX=1;entryY=0.5;entryDx=0;entryDy=0;" edge="1" parent="1" target="IAP_nSiCaJIR2EBRwu1--116">
          <mxGeometry width="50" height="50" relative="1" as="geometry">
            <mxPoint x="450" y="1050" as="sourcePoint" />
            <mxPoint x="450" y="960" as="targetPoint" />
            <Array as="points">
              <mxPoint x="680" y="970" />
              <mxPoint x="640" y="1015" />
            </Array>
          </mxGeometry>
        </mxCell>
        <mxCell id="IAP_nSiCaJIR2EBRwu1--154" value="주문 입력" style="text;html=1;strokeColor=none;fillColor=none;align=center;verticalAlign=middle;whiteSpace=wrap;rounded=0;" vertex="1" parent="1">
          <mxGeometry x="470" y="1030" width="140" height="20" as="geometry" />
        </mxCell>
        <mxCell id="IAP_nSiCaJIR2EBRwu1--159" value="Endpoint" style="rounded=1;whiteSpace=wrap;html=1;" vertex="1" parent="1">
          <mxGeometry x="120" y="300" width="420" height="60" as="geometry" />
        </mxCell>
        <mxCell id="IAP_nSiCaJIR2EBRwu1--161" value="&lt;h1&gt;엔드포인트&lt;/h1&gt;&lt;p&gt;플라스크 모듈로 작성&lt;/p&gt;&lt;p&gt;웹, 앱, 챗봇과 통신&lt;/p&gt;&lt;p&gt;&lt;br&gt;&lt;/p&gt;" style="text;html=1;strokeColor=none;fillColor=none;spacing=5;spacingTop=-20;whiteSpace=wrap;overflow=hidden;rounded=0;" vertex="1" parent="1">
          <mxGeometry x="550" y="280" width="130" height="100" as="geometry" />
        </mxCell>
        <mxCell id="IAP_nSiCaJIR2EBRwu1--163" value="USER" style="rounded=1;whiteSpace=wrap;html=1;" vertex="1" parent="1">
          <mxGeometry x="120" y="200" width="560" height="60" as="geometry" />
        </mxCell>
      </root>
    </mxGraphModel>
  </diagram>
</mxfile>
